<svg xmlns="http://www.w3.org/2000/svg" width="40" height="40" viewBox="0 0 40 40" fill="none">
  <rect width="40" height="40" rx="20" fill="#0070f3"/>
  <path d="M20 10C14.477 10 10 14.477 10 20C10 25.523 14.477 30 20 30C25.523 30 30 25.523 30 20C30 14.477 25.523 10 20 10ZM16.5 16C16.5 15.172 17.172 14.5 18 14.5C18.828 14.5 19.5 15.172 19.5 16C19.5 16.828 18.828 17.5 18 17.5C17.172 17.5 16.5 16.828 16.5 16ZM23.5 24.5H16.5C16.224 24.5 16 24.276 16 24C16 23.724 16.224 23.5 16.5 23.5H23.5C23.776 23.5 24 23.724 24 24C24 24.276 23.776 24.5 23.5 24.5ZM22 17.5C21.172 17.5 20.5 16.828 20.5 16C20.5 15.172 21.172 14.5 22 14.5C22.828 14.5 23.5 15.172 23.5 16C23.5 16.828 22.828 17.5 22 17.5Z" fill="white"/>
</svg>
