<?xml version="1.0" standalone="no"?>
<!DOCTYPE svg PUBLIC "-//W3C//DTD SVG 20010904//EN"
 "http://www.w3.org/TR/2001/REC-SVG-20010904/DTD/svg10.dtd">
<svg version="1.0" xmlns="http://www.w3.org/2000/svg"
 width="300.000000pt" height="279.000000pt" viewBox="0 0 300.000000 279.000000"
 preserveAspectRatio="xMidYMid meet">
<metadata>
Created by potrace 1.10, written by Peter Selinger 2001-2011
</metadata>
<defs>
  <linearGradient id="blueToViolet" x1="0%" y1="0%" x2="100%" y2="100%">
    <stop offset="0%" stop-color="#4F46E5" /> <!-- Indigo-600 -->
    <stop offset="50%" stop-color="#6366F1" /> <!-- Indigo-500 -->
    <stop offset="100%" stop-color="#A855F7" /> <!-- Purple-500 -->
  </linearGradient>
</defs>
<g transform="translate(0.000000,279.000000) scale(0.050000,-0.050000)"
fill="url(#blueToViolet)" stroke="none">
<path d="M1544 5234 c-35 -36 -64 -76 -64 -89 0 -21 -100 -256 -141 -330 -10
-19 -19 -47 -19 -63 0 -16 -13 -54 -29 -85 -16 -32 -43 -93 -61 -137 -18 -44
-41 -98 -51 -120 -10 -22 -94 -229 -187 -460 -92 -231 -191 -471 -220 -534
-105 -228 -56 -288 483 -606 38 -23 137 -86 364 -233 175 -114 163 -112 246
-39 63 57 64 61 38 125 -31 78 -62 198 -76 297 -11 76 -54 4 660 1095 378 576
391 527 -267 946 -533 339 -564 349 -676 233z m382 -244 c753 -487 701 -423
542 -665 -64 -96 -171 -260 -238 -365 -68 -104 -200 -307 -293 -450 -93 -143
-198 -304 -233 -358 -70 -108 -80 -191 -34 -272 86 -150 26 -171 -150 -52
-193 129 -523 342 -575 369 -25 14 -45 43 -45 67 0 34 236 632 352 889 15 35
28 69 28 75 0 7 18 51 39 97 21 47 71 166 111 265 40 99 86 208 101 243 16 35
29 68 29 74 0 44 104 235 125 230 14 -4 122 -70 241 -147z"/>
<path d="M1870 4580 c-203 -79 -162 -380 51 -380 99 0 168 74 168 180 0 117
-129 235 -219 200z"/>
<path d="M1529 3934 c-69 -59 -78 -169 -20 -233 53 -58 178 -56 220 3 106 153
-64 348 -200 230z"/>
<path d="M1288 3410 c-59 -59 -61 -108 -7 -177 62 -79 152 -73 188 11 58 139
-80 267 -181 166z"/>
<path d="M3381 4914 c-45 -22 -118 -130 -539 -797 -200 -317 -142 -419 178
-317 206 66 203 67 647 -227 1283 -849 1124 -819 1464 -277 98 157 223 355
276 440 207 327 189 360 -310 562 -158 64 -327 135 -377 157 -49 23 -202 86
-340 141 -137 55 -383 155 -546 222 -304 126 -369 139 -453 96z m379 -244
c654 -271 1288 -531 1410 -579 232 -92 231 -63 16 -389 -149 -227 -284 -436
-353 -548 -57 -91 -72 -86 -425 143 -186 121 -419 272 -518 335 -99 64 -257
166 -351 228 -242 159 -283 173 -397 141 -231 -65 -231 -65 -27 242 85 129
198 302 250 387 110 176 76 173 395 40z"/>
<path d="M3465 4401 c-72 -60 -64 -190 13 -217 138 -49 255 142 138 225 -58
40 -96 38 -151 -8z"/>
<path d="M3945 4168 c-115 -91 -55 -268 91 -268 176 0 222 208 64 290 -75 39
-79 39 -155 -22z"/>
<path d="M4517 3907 c-112 -72 -128 -202 -35 -289 166 -155 421 81 273 252
-58 66 -166 83 -238 37z"/>
<path d="M2890 3181 c-394 -91 -533 -558 -250 -841 231 -231 664 -140 737 156
71 285 65 289 -400 266 -44 -2 -70 -113 -36 -153 15 -19 62 -29 131 -29 119 0
127 -10 67 -87 -65 -83 -251 -78 -337 9 -98 97 -93 307 9 396 117 103 276 79
346 -53 l23 -43 85 44 c107 56 115 104 33 191 -101 106 -286 171 -408 144z
m197 -91 c32 -17 68 -30 80 -31 58 -3 120 -119 80 -149 -50 -38 -54 -37 -77
15 -11 25 -37 48 -59 52 -21 4 -51 20 -66 35 -49 50 -139 26 -279 -73 -155
-110 -94 -539 76 -539 12 0 34 -13 51 -30 90 -90 356 63 343 197 -6 60 -11 63
-106 73 -121 12 -151 67 -48 87 80 16 205 17 246 1 43 -17 45 -179 2 -195 -16
-7 -30 -32 -30 -56 0 -48 -72 -137 -111 -137 -13 0 -35 -13 -49 -30 -18 -22
-67 -30 -183 -30 -122 0 -161 7 -170 30 -6 17 -22 30 -36 30 -92 0 -175 165
-176 349 l0 182 77 86 c131 146 307 200 435 133z"/>
<path d="M4001 2887 c-49 -62 -49 -66 -14 -151 37 -88 93 -266 93 -293 0 -12
-88 -156 -195 -321 -215 -329 -339 -524 -385 -601 -17 -28 -100 -155 -184
-281 -245 -365 -244 -439 4 -574 39 -21 138 -82 220 -137 83 -54 159 -103 170
-109 11 -5 111 -71 223 -145 286 -190 400 -185 477 19 31 85 304 753 350 856
10 22 82 198 160 390 78 193 166 401 194 464 92 200 62 289 -136 411 -66 41
-214 136 -329 210 -114 74 -213 135 -219 135 -6 0 -66 41 -134 90 -149 108
-231 119 -295 37z m610 -435 c439 -291 407 -248 326 -429 -22 -49 -57 -134
-79 -190 -21 -57 -47 -121 -56 -143 -10 -22 -33 -80 -53 -130 -19 -49 -56
-137 -82 -194 -26 -57 -47 -109 -47 -117 0 -7 -14 -46 -32 -86 -39 -88 -39
-90 -169 -403 -57 -137 -121 -297 -142 -355 -47 -124 -54 -125 -186 -37 -103
69 -580 369 -716 450 -102 62 -98 81 82 354 86 131 227 346 313 478 86 132
212 326 281 430 206 315 215 342 157 494 -35 91 -26 159 18 132 14 -9 188
-123 385 -254z"/>
<path d="M4438 2221 c-102 -102 18 -288 143 -220 101 54 90 180 -22 246 -59
35 -60 35 -121 -26z"/>
<path d="M4164 1721 c-72 -97 -55 -174 52 -246 133 -88 275 141 163 261 -61
66 -160 59 -215 -15z"/>
<path d="M3849 1191 c-158 -158 63 -427 238 -290 126 99 43 339 -117 339 -50
0 -87 -15 -121 -49z"/>
<path d="M1026 2505 c-39 -31 -306 -413 -306 -438 0 -5 -25 -42 -55 -82 -379
-497 -385 -635 -30 -781 107 -44 474 -197 815 -339 903 -378 941 -392 1002
-376 57 14 161 113 190 180 9 23 134 225 277 451 278 438 283 449 220 516 -48
52 -111 55 -247 14 -229 -70 -308 -40 -785 292 -46 32 -88 58 -95 58 -6 0
-180 111 -386 247 -504 330 -506 331 -600 258z m541 -412 c1126 -746 1010
-687 1258 -644 125 22 124 15 -51 -243 -81 -119 -190 -286 -242 -371 -53 -85
-108 -155 -122 -155 -24 0 -336 112 -440 158 -194 86 -182 81 -1019 420 -220
89 -402 162 -405 162 -28 0 15 90 129 269 74 117 144 228 155 247 12 19 47 75
78 124 32 50 88 137 125 195 88 139 73 144 534 -162z"/>
<path d="M1196 1850 c-71 -40 -96 -89 -96 -187 0 -196 289 -217 356 -27 52
150 -121 291 -260 214z"/>
<path d="M1741 1484 c-78 -78 -77 -132 3 -205 145 -132 359 43 240 197 -60 77
-170 81 -243 8z"/>
<path d="M2325 1265 c-95 -16 -140 -167 -68 -232 52 -47 117 -41 174 16 104
105 38 239 -106 216z"/>
</g>

<!-- Add the letter G in the center -->
<text x="150" y="150" font-family="Arial, sans-serif" font-size="200" font-weight="bold" fill="white" text-anchor="middle" dominant-baseline="middle">G</text>
</svg>
