<?xml version="1.0" encoding="UTF-8" standalone="no"?>
<svg width="512" height="512" viewBox="0 0 512 512" fill="none" xmlns="http://www.w3.org/2000/svg">
  <defs>
    <linearGradient id="blueToViolet" x1="0%" y1="0%" x2="100%" y2="100%">
      <stop offset="0%" stop-color="#4F46E5" /> <!-- Indigo-600 -->
      <stop offset="50%" stop-color="#6366F1" /> <!-- Indigo-500 -->
      <stop offset="100%" stop-color="#A855F7" /> <!-- Purple-500 -->
    </linearGradient>
  </defs>
  <g>
    <!-- This is a placeholder shape. Replace with your actual logo path -->
    <path d="M256 64C150 64 64 150 64 256c0 106 86 192 192 192s192-86 192-192c0-106-86-192-192-192zm0 354c-89.5 0-162-72.5-162-162 0-89.5 72.5-162 162-162s162 72.5 162 162c0 89.5-72.5 162-162 162zm0-300c-76.1 0-138 61.9-138 138s61.9 138 138 138 138-61.9 138-138-61.9-138-138-138zm0 222c-46.4 0-84-37.6-84-84s37.6-84 84-84 84 37.6 84 84-37.6 84-84 84z" fill="url(#blueToViolet)"/>
    <!-- You can add more paths or elements as needed -->
  </g>
</svg>
